<svg version="1.2" baseProfile="tiny-ps" xmlns="http://www.w3.org/2000/svg" viewBox="0 0 1472 310" width="171" height="36">
	<title>AI - Copy-ai</title>
	<style>
		tspan { white-space:pre }
		.shp0 { fill: #ffffff } 
		.shp1 { fill: #7267ef } 
		.shp2 { fill: #0b4c80 } 
		.shp3 { fill: #eef2f4 } 
		.shp4 { fill: #127eff } 
	</style>
	<g id="Layer 1">
		<g id="&lt;Group&gt;">
			<g id="&lt;Group&gt;">
				<g id="&lt;Group&gt;">
					<g id="&lt;Group&gt;">
						<path id="&lt;Compound Path&gt;" class="shp0" d="M604.71 67.64L604.71 102.37L561.86 102.37L561.86 242.08L526.69 242.08L526.69 102.37L483.73 102.37L483.73 67.64L604.71 67.64Z" />
						<path id="&lt;Compound Path&gt;" class="shp0" d="M619.88 67.64L654.94 67.64L654.94 242.08L619.88 242.08L619.88 67.64Z" />
						<path id="&lt;Compound Path&gt;" class="shp0" d="M762.08 180.72L847.46 63.52L847.46 242.08L812.4 242.08L812.4 169.79L762.08 239.26L711.66 169.79L711.66 242.08L676.59 242.08L676.59 63.52L762.08 180.72Z" />
						<path id="&lt;Compound Path&gt;" class="shp0" d="M974.32 67.2L974.32 102.16L904.2 102.16L904.2 137.33L956.79 137.33L956.79 172.28L904.2 172.28L904.2 207.45L974.32 207.45L974.32 242.29L869.14 242.29L869.14 67.2L974.32 67.2Z" />
					</g>
					<g id="&lt;Group&gt;">
						<path id="&lt;Compound Path&gt;" class="shp0" d="M1032.57 65.36L1032.57 135.16L1090.9 135.16L1090.9 65.36L1125.85 65.36L1125.85 239.8L1090.9 239.8L1090.9 169.9L1032.57 169.9L1032.57 239.8L997.62 239.8L997.62 65.36L1032.57 65.36Z" />
						<path id="&lt;Compound Path&gt;" fill-rule="evenodd" class="shp0" d="M1147.52 65.36L1204.44 65.36C1223.86 65.36 1239.57 72.69 1250.11 83.11C1260.73 93.73 1266.99 103.41 1266.99 122.71L1266.99 127.26C1266.99 139.02 1263.31 150.09 1255.95 160.48C1249.82 169.06 1244.97 172.71 1235.06 176.6L1275.64 239.8L1232.79 239.8L1182.69 162.64L1182.69 239.8L1147.63 239.8L1147.52 65.36ZM1230.84 123.8C1230.84 117.45 1228.54 111.85 1223.92 107.02C1219.37 102.6 1210.73 100.1 1202.28 100.1L1182.58 100.1L1182.58 148.25L1196.11 148.25L1196.11 148.36L1207.79 148.36C1220.57 148.36 1230.84 137.09 1230.84 123.8Z" />
						<path id="&lt;Compound Path&gt;" class="shp0" d="M1376.2 178.44L1461.58 61.25L1461.58 239.8L1426.52 239.8L1426.52 167.51L1376.2 236.99L1325.77 167.51L1325.77 239.8L1290.71 239.8L1290.71 61.25L1376.2 178.44Z" />
					</g>
				</g>
				<g id="&lt;Group&gt;">
					<path id="&lt;Path&gt;" class="shp1" d="M136.13 74.73C156.92 46.89 184.11 28.68 218.23 21.71C275.28 10.04 331.18 34.28 361.78 83.58C364.22 87.51 366.65 88.04 370.81 87.69C424.96 83.11 470.19 115.9 481.73 167.9C496.85 236.04 437.53 299.35 368.29 289.89C326.29 284.15 295.77 261.15 271.62 228.47C254.8 205.71 239.66 181.71 223.77 158.26C206.84 133.26 189.19 108.84 163.99 91.31C155.41 85.33 145.99 80.55 136.13 74.73Z" />
					<path id="&lt;Path&gt;" class="shp2" d="M288.97 290.63C224.79 290.63 162.37 291.37 99.97 290.39C53.42 289.65 14.69 249.88 11.85 202.42C9.04 155.42 42.8 112.68 88.46 104.54C114.15 99.95 136.75 105.81 155.33 123.73C166.48 134.49 176.28 146.79 185.68 159.15C194.17 170.32 201.37 182.46 209.01 194.26C231.57 229.12 254.12 263.96 288.97 290.63Z" />
				</g>
			</g>
			<g id="&lt;Group&gt;">
				<path id="&lt;Path&gt;" class="shp2" d="M475.36 190.01C475.36 242.55 432.77 285.15 380.23 285.15C327.68 285.15 285.09 242.55 285.09 190.01C285.09 137.47 327.68 94.88 380.23 94.88C432.77 94.88 475.36 137.47 475.36 190.01Z" />
				<g id="&lt;Group&gt;">
					<g id="&lt;Group&gt;">
						<path id="&lt;Compound Path&gt;" fill-rule="evenodd" class="shp3" d="M380.18 110.5C423.37 110.52 459.79 144.8 459.75 190.27C459.71 234.5 424.09 269.54 380.12 269.53C335.29 269.52 300.51 232.94 300.71 189.53C300.9 146.04 336.52 110.5 380.18 110.5ZM369.27 193.44C370.65 197.02 373.07 199.56 376.71 200.88C376.77 201.91 376.66 202.98 376.9 203.97C377.5 206.55 379.87 207.42 382.1 206.01C384.08 204.75 383.76 202.78 383.74 200.89C387.41 199.54 389.88 197.01 391.21 193.34C393.54 192.78 394.87 191.44 394.74 189.78C394.59 187.82 393.43 186.76 391.21 186.57C389.87 182.9 387.35 180.4 383.72 179C383.73 176.92 383.76 174.83 383.76 172.75C383.76 162.38 383.77 152.02 383.75 141.65C383.74 139 382.38 137.34 380.28 137.27C378.2 137.19 376.72 138.72 376.71 141.29C376.69 153.86 376.73 166.43 376.75 178.99C373.11 180.39 370.61 182.92 369.23 186.57C359.45 186.57 349.67 186.56 339.88 186.57C337.48 186.57 336 187.92 336.02 190.05C336.04 191.9 337.76 193.46 339.92 193.46C349.71 193.47 359.49 193.45 369.27 193.44ZM382.95 132.76C382.95 127.13 382.95 121.55 382.95 115.8C381.57 115.8 380.3 115.87 379.04 115.78C377.75 115.68 377.32 116.15 377.35 117.45C377.42 121.04 377.37 124.63 377.37 128.21C377.37 133.49 377.37 133.49 382.67 132.92C382.72 132.91 382.77 132.86 382.95 132.76ZM306.09 192.78C310.69 192.78 314.96 192.78 319.24 192.78C323.38 192.78 323.38 192.78 323.26 188.61C323.25 188.5 323.3 188.34 323.24 188.27C322.89 187.88 322.51 187.18 322.14 187.18C317.16 187.1 312.19 187.11 307.21 187.17C306.84 187.17 306.17 187.75 306.15 188.1C306.03 189.58 306.09 191.07 306.09 192.78ZM454.35 192.78C454.35 191.2 454.28 189.88 454.37 188.56C454.45 187.36 453.9 187.1 452.83 187.11C448.95 187.15 445.08 187.12 441.2 187.12C437.06 187.12 437.06 187.12 437.2 191.27C437.2 191.44 437.13 191.68 437.22 191.78C437.55 192.14 437.93 192.73 438.3 192.73C443.55 192.8 448.81 192.78 454.35 192.78ZM377.47 263.92C379.45 263.92 381.21 263.92 382.94 263.92C382.94 258.24 382.94 252.72 382.94 247.17C381.06 247.17 379.3 247.17 377.47 247.17C377.47 252.82 377.47 258.34 377.47 263.92ZM337.91 151.14C339.11 150.01 340.38 148.8 341.3 147.93C337.35 143.98 333.42 140.04 329.62 136.24C328.58 137.22 327.34 138.39 326.18 139.48C330.14 143.42 334.07 147.32 337.91 151.14ZM430.71 136.01C426.79 139.94 422.84 143.89 419.08 147.66C420.13 148.85 421.3 150.18 422.18 151.17C426.23 147.18 430.2 143.26 434.13 139.38C433.02 138.29 431.8 137.08 430.71 136.01ZM434.12 240.68C430.08 236.64 426.17 232.74 422.36 228.92C421.34 229.93 420.13 231.14 419.08 232.17C422.97 236.08 426.87 239.99 430.84 243.98C431.94 242.88 433.15 241.66 434.12 240.68ZM329.6 243.99C333.63 239.96 337.57 236.01 341.33 232.24C340.31 231.11 339.16 229.84 338.12 228.69C334.12 232.68 330.21 236.6 326 240.81C326.75 241.46 327.62 242.21 328.49 242.96C328.91 243.34 329.32 243.74 329.6 243.99Z" />
						<path id="&lt;Compound Path&gt;" fill-rule="evenodd" class="shp4" d="M376.71 200.88C373.07 199.56 370.65 197.02 369.27 193.44C369.26 191.15 369.25 188.86 369.23 186.57C370.61 182.92 373.11 180.39 376.75 178.99C379.07 179 381.4 179 383.72 179C387.35 180.4 389.87 182.9 391.21 186.57C391.21 188.83 391.21 191.09 391.21 193.34C389.88 197.01 387.41 199.54 383.74 200.89C381.4 201.55 379.06 201.58 376.71 200.88ZM386.29 189.96C386.31 186.76 383.41 183.86 380.21 183.86C377.06 183.87 374.18 186.79 374.14 190.02C374.1 193.07 377.01 195.97 380.16 196C383.38 196.03 386.26 193.19 386.29 189.96Z" />
						<path id="&lt;Path&gt;" class="shp4" d="M383.72 179C381.4 179 379.07 179 376.75 178.99C376.73 166.43 376.69 153.86 376.71 141.29C376.72 138.72 378.2 137.19 380.28 137.27C382.38 137.34 383.74 139 383.75 141.65C383.77 152.02 383.76 162.38 383.76 172.75C383.76 174.83 383.73 176.92 383.72 179Z" />
						<path id="&lt;Path&gt;" class="shp4" d="M369.23 186.57C369.25 188.86 369.26 191.15 369.27 193.44C359.49 193.45 349.71 193.47 339.92 193.46C337.76 193.46 336.04 191.9 336.02 190.05C336 187.92 337.48 186.57 339.88 186.57C349.67 186.56 359.45 186.57 369.23 186.57Z" />
						<path id="&lt;Path&gt;" class="shp4" d="M382.95 132.76C382.77 132.86 382.72 132.91 382.67 132.92C377.37 133.49 377.37 133.49 377.37 128.21C377.37 124.63 377.42 121.04 377.35 117.45C377.32 116.15 377.75 115.68 379.04 115.78C380.3 115.87 381.57 115.8 382.95 115.8C382.95 121.55 382.95 127.13 382.95 132.76Z" />
						<path id="&lt;Path&gt;" class="shp4" d="M306.09 192.78C306.09 191.07 306.03 189.58 306.15 188.1C306.17 187.75 306.84 187.17 307.21 187.17C312.19 187.11 317.16 187.1 322.14 187.18C322.51 187.18 322.89 187.88 323.24 188.27C323.3 188.34 323.25 188.5 323.26 188.61C323.38 192.78 323.38 192.78 319.24 192.78C314.96 192.78 310.69 192.78 306.09 192.78Z" />
						<path id="&lt;Path&gt;" class="shp4" d="M454.35 192.78C448.81 192.78 443.55 192.8 438.3 192.73C437.93 192.73 437.55 192.14 437.22 191.78C437.13 191.68 437.2 191.44 437.2 191.27C437.06 187.12 437.06 187.12 441.2 187.12C445.08 187.12 448.95 187.15 452.83 187.11C453.9 187.1 454.45 187.36 454.37 188.56C454.28 189.88 454.35 191.2 454.35 192.78Z" />
						<path id="&lt;Path&gt;" class="shp4" d="M377.47 263.92C377.47 258.34 377.47 252.82 377.47 247.17C379.3 247.17 381.06 247.17 382.94 247.17C382.94 252.72 382.94 258.24 382.94 263.92C381.21 263.92 379.45 263.92 377.47 263.92Z" />
						<path id="&lt;Path&gt;" class="shp4" d="M337.91 151.14C334.07 147.32 330.14 143.42 326.18 139.48C327.34 138.39 328.58 137.22 329.62 136.24C333.42 140.04 337.35 143.98 341.3 147.93C340.38 148.8 339.11 150.01 337.91 151.14Z" />
						<path id="&lt;Path&gt;" class="shp4" d="M430.71 136.01C431.8 137.08 433.02 138.29 434.13 139.38C430.2 143.26 426.23 147.18 422.18 151.17C421.3 150.18 420.13 148.85 419.08 147.66C422.84 143.89 426.79 139.94 430.71 136.01Z" />
						<path id="&lt;Path&gt;" class="shp4" d="M434.12 240.68C433.15 241.66 431.94 242.88 430.84 243.98C426.87 239.99 422.97 236.08 419.08 232.17C420.13 231.14 421.34 229.93 422.36 228.92C426.17 232.74 430.08 236.64 434.12 240.68Z" />
						<path id="&lt;Path&gt;" class="shp4" d="M329.6 243.99C329.32 243.74 328.91 243.34 328.49 242.96C327.62 242.21 326.75 241.46 326 240.81C330.21 236.6 334.12 232.68 338.12 228.69C339.16 229.84 340.31 231.11 341.33 232.24C337.57 236.01 333.63 239.96 329.6 243.99Z" />
						<path id="&lt;Path&gt;" class="shp4" d="M376.71 200.88C379.06 201.58 381.4 201.55 383.74 200.89C383.76 202.78 384.08 204.75 382.1 206.01C379.87 207.42 377.5 206.55 376.9 203.97C376.66 202.98 376.77 201.91 376.71 200.88Z" />
						<path id="&lt;Path&gt;" class="shp4" d="M391.21 193.34C391.21 191.09 391.21 188.83 391.21 186.57C393.43 186.76 394.59 187.82 394.74 189.78C394.87 191.44 393.54 192.78 391.21 193.34Z" />
						<path id="&lt;Path&gt;" class="shp4" d="M386.29 189.96C386.26 193.19 383.38 196.03 380.16 196C377.01 195.97 374.1 193.07 374.14 190.02C374.18 186.79 377.06 183.87 380.21 183.86C383.41 183.86 386.31 186.76 386.29 189.96Z" />
					</g>
				</g>
			</g>
		</g>
	</g>
</svg>